<svg xmlns="http://www.w3.org/2000/svg" version="1.1" xmlns:xlink="http://www.w3.org/1999/xlink" width="600" height="600"><svg xmlns="http://www.w3.org/2000/svg" version="1.1" xmlns:xlink="http://www.w3.org/1999/xlink" width="600" height="600"><svg width="600" height="600" viewBox="0 0 600 600" fill="none" xmlns="http://www.w3.org/2000/svg">
<rect width="600" height="600" rx="40" fill="#0D47A1"></rect>
<path d="M212.72 241.163C198.702 245.595 193.573 253.859 190.979 268.236C202.351 256.321 210.919 251.847 228.125 247.823C210.808 254.736 203.683 260.035 193.151 272.014C198.369 269.79 199.122 270.027 207.55 269.866C215.978 269.706 218.929 270.033 223.853 265.974C228.776 261.914 236.066 248.222 240.488 235C237.469 238.664 226.738 236.731 212.72 241.163Z" fill="#D8E6FF"></path>
<path d="M75.1965 285.518L103.122 359.676C103.566 360.853 104.691 361.632 105.949 361.632H126.269C127.352 361.632 128.351 361.052 128.89 360.114L171.399 285.955C172.553 283.942 171.1 281.433 168.779 281.433H151.416C150.332 281.433 149.331 282.014 148.794 282.956L121.798 330.235C120.532 332.451 117.258 332.196 116.352 329.809L98.7262 283.382C98.281 282.209 97.1572 281.433 95.9028 281.433H78.0228C75.9124 281.433 74.4528 283.543 75.1965 285.518Z" fill="white"></path>
<path d="M209.159 281.433H192.54C191.041 281.433 189.769 282.533 189.552 284.016L178.688 358.198C178.423 360.012 179.822 361.643 181.656 361.656L199.83 361.781C201.361 361.791 202.657 360.655 202.847 359.136L212.155 284.829C212.381 283.026 210.975 281.433 209.159 281.433Z" fill="white"></path>
<path d="M263.169 253.353L245 255.483C243.603 255.647 242.504 256.754 242.35 258.152L240.225 277.402C240.057 278.933 238.763 280.091 237.224 280.091H227.973C226.461 280.091 225.181 281.21 224.98 282.709L223.108 296.634C222.864 298.446 224.273 300.057 226.101 300.057H233.349C235.155 300.057 236.557 301.632 236.348 303.426L232.715 334.616L232.714 334.62C232.706 334.69 232.047 340.524 232.714 345.86C233.385 351.229 237.076 363.142 249.996 363.142C258.649 363.142 259.568 363.142 259.774 363.142L260.398 363.142C261.586 363.142 265.942 362.486 268.777 362.039C270.236 361.809 271.304 360.548 271.304 359.071V347.37C271.304 345.703 269.952 344.35 268.284 344.35L261.069 344.35C257.881 344.183 256.962 342.954 256.875 340.156L259.684 302.85C259.803 301.275 261.116 300.057 262.696 300.057H278.42C279.992 300.057 281.301 298.85 281.43 297.283L282.466 284.615C282.602 282.951 281.362 281.493 279.698 281.359L267.025 280.341C265.326 280.204 264.077 278.69 264.265 276.997L266.522 256.686C266.736 254.755 265.098 253.127 263.169 253.353Z" fill="white"></path>
<path d="M413.749 280.259H397.239C395.737 280.259 394.464 281.363 394.25 282.849L383.373 358.518C383.112 360.338 384.524 361.967 386.363 361.967H405.955C407.587 361.967 408.929 360.672 409.014 359.042C409.312 353.313 410.224 339.594 412.742 321.7C416.098 297.861 451.164 283.767 447.137 308.446C443.95 327.983 440.551 350.131 439.274 358.51C438.995 360.337 440.412 361.967 442.26 361.967H461.768C463.422 361.967 464.772 360.64 464.815 358.985C465.021 350.922 465.886 328.372 469.284 314.654C473.479 297.723 502.002 289.304 500.827 306.936C499.869 321.323 496.117 348.874 494.769 358.525C494.515 360.346 495.93 361.967 497.768 361.967H516.092C517.624 361.967 518.911 360.839 519.087 359.317C520.378 348.144 525.279 305.231 524.988 300.225C524.652 294.462 516.857 282.191 502.002 278.749C498.463 278.21 496.482 278.233 492.941 278.749C481.823 281.259 476.277 284.273 471.384 290.653C469.888 292.603 466.752 292.385 465.525 290.256C462.461 284.939 458.754 281.892 451.347 278.89C451.117 278.797 450.871 278.732 450.625 278.7C446.072 278.102 443.405 278.011 438.748 278.749C431.51 280.118 426.978 281.976 422.961 285.628C420.771 287.618 416.769 286.257 416.769 283.297C416.769 281.629 415.417 280.259 413.749 280.259Z" fill="white"></path>
<path fill-rule="evenodd" clip-rule="evenodd" d="M369.582 289.702C370.35 290.814 371.202 292.047 372.276 293.43C372.817 294.126 373.056 295.028 372.904 295.896C368.634 320.252 367.461 334.713 367.29 358.617C367.278 360.281 365.929 361.632 364.265 361.632H344.917C343.921 361.632 343.114 360.824 343.114 359.828C343.114 357.782 337.905 356.065 336.308 357.343C332.915 360.059 327.954 362.755 320.799 364.316C302.343 368.343 280.699 349.216 284.055 320.694C287.411 292.171 314.759 276.247 346.637 278.749C363.973 281.583 365.701 284.084 369.582 289.702ZM320.799 345.189C300.889 343.38 300.33 307.942 329.188 299.218C358.046 290.493 340.708 346.998 320.799 345.189Z" fill="white"></path>
</svg></svg><style>@media (prefers-color-scheme: light) { :root { filter: none; } }
@media (prefers-color-scheme: dark) { :root { filter: none; } }
</style></svg>